<svg xmlns="http://www.w3.org/2000/svg" viewBox="0 0 291.22 144.38"><defs><style>.cls-1{isolation:isolate;}.cls-2{opacity:0.74;}.cls-2,.cls-4,.cls-6{mix-blend-mode:multiply;}.cls-3{fill:#008fc1;}.cls-4{opacity:0.97;}.cls-5{fill:#a10d59;}.cls-6{opacity:0.88;}.cls-7{fill:#72706e;}.cls-8{opacity:0.6;}.cls-13,.cls-9{fill:none;}.cls-9{stroke:#6f7072;stroke-miterlimit:10;stroke-width:0.7px;stroke-dasharray:2;}.cls-10{fill:#813f5e;}.cls-11{fill:#30b1aa;}.cls-12{fill:#58585a;}</style></defs><title>Asset 3</title><g class="cls-1"><g id="Layer_2" data-name="Layer 2"><g id="Layer_1-2" data-name="Layer 1"><g class="cls-2"><path class="cls-3" d="M184.33,115.2a2.81,2.81,0,0,0,2.27,1.33l24.33-.15a3.18,3.18,0,0,0,2.39-1.35L226.46,94a3,3,0,0,0,.12-2.68l-11.2-20.92A2.81,2.81,0,0,0,213.12,69l-24.33.15a3.18,3.18,0,0,0-2.39,1.35L173.26,91.6a3,3,0,0,0-.12,2.68Z"/></g><g class="cls-4"><path class="cls-5" d="M209.25,100.46a3.61,3.61,0,0,0,2.92,1.71l23.37-.14a4.09,4.09,0,0,0,3.08-1.74l12.61-20.23a3.82,3.82,0,0,0,.16-3.45L240.63,56.51a3.61,3.61,0,0,0-2.92-1.71l-23.37.14a4.09,4.09,0,0,0-3.08,1.74L198.66,76.92a3.82,3.82,0,0,0-.16,3.45Z"/></g><g class="cls-6"><path class="cls-7" d="M222.66,66.39a3.61,3.61,0,0,0,2.92,1.71L240.8,68a4.09,4.09,0,0,0,3.08-1.74l8.21-13.18a3.82,3.82,0,0,0,.16-3.45l-7-13.09a3.61,3.61,0,0,0-2.92-1.71l-15.22.09A4.09,4.09,0,0,0,224,36.68l-8.21,13.18a3.82,3.82,0,0,0-.16,3.45Z"/></g><g class="cls-8"><polygon class="cls-9" points="243.48 67.82 261.77 68.07 271.22 52.41 262.37 36.49 244.09 36.24 234.64 51.9 243.48 67.82"/><polygon class="cls-9" points="215.74 83.22 234.03 83.48 243.48 67.82 234.64 51.9 216.35 51.64 206.9 67.31 215.74 83.22"/><line class="cls-9" x1="207.44" y1="35.61" x2="216.4" y2="51.74"/><polyline class="cls-9" points="244.14 36.34 235.21 20.26 216.92 20"/><line class="cls-9" x1="190.18" y1="64.52" x2="190.61" y2="64.52"/><line class="cls-9" x1="191.47" y1="64.54" x2="204.79" y2="64.75"/><polyline class="cls-9" points="205.22 64.76 205.66 64.77 205.88 64.4"/><line class="cls-9" x1="206.32" y1="63.66" x2="213.18" y2="52.23"/><polyline class="cls-9" points="213.4 51.85 213.63 51.49 213.41 51.1"/><line class="cls-9" x1="212.99" y1="50.34" x2="206.54" y2="38.74"/><line class="cls-9" x1="206.26" y1="38.24" x2="206.12" y2="37.99"/></g><g class="cls-4"><path class="cls-10" d="M223.2,74.91a2.89,2.89,0,0,1-2.34,1.36l-18.7-.16a3.27,3.27,0,0,1-2.46-1.4L189.64,58.48a3.06,3.06,0,0,1-.12-2.76l8.65-16.06a2.89,2.89,0,0,1,2.34-1.36l18.71.16a3.27,3.27,0,0,1,2.46,1.4l10.06,16.22a3.06,3.06,0,0,1,.12,2.76Z"/></g><g class="cls-2"><path class="cls-11" d="M255.82,63.45a2.13,2.13,0,0,1-1.73,1l-18.48-.16a2.42,2.42,0,0,1-1.81-1l-9.93-16a2.26,2.26,0,0,1-.09-2l8.54-15.87a2.13,2.13,0,0,1,1.73-1l18.48.16a2.41,2.41,0,0,1,1.81,1l9.93,16a2.26,2.26,0,0,1,.09,2Z"/></g><path class="cls-12" d="M77.05,49.82a3.66,3.66,0,0,1-2,.46c-1.42,0-2.32-.78-2.32-2.61a7.36,7.36,0,0,1-5.87,2.61c-3,0-5.52-1.37-5.52-4.74,0-3.82,2.81-4.64,5.65-5.19,3-.59,5.62-.39,5.62-2.48,0-2.42-2-2.81-3.71-2.81-2.32,0-4,.72-4.16,3.2H62c.16-4.18,3.36-5.65,7.07-5.65,3,0,6.26.69,6.26,4.64v8.69c0,1.31,0,1.9.87,1.9a2.33,2.33,0,0,0,.84-.16ZM72.6,41.17c-1.07.78-3.13.82-5,1.14s-3.36,1-3.36,3c0,1.83,1.55,2.48,3.23,2.48,3.62,0,5.1-2.29,5.1-3.82Z"/><path class="cls-12" d="M79.7,33h2.74v2.29h.06c.9-1.86,3-2.68,5.33-2.68,5.13,0,7.68,4.12,7.68,8.89S93,50.28,87.89,50.28a6.36,6.36,0,0,1-5.39-2.65h-.06v8.72H79.7Zm7.75,2.06c-3.68,0-5.1,3.2-5.1,6.37,0,3.33,1.48,6.4,5.26,6.4s5-3.23,5-6.53S91,35.06,87.44,35.06Z"/><path class="cls-12" d="M98.83,33h2.74v2.29h.06c.9-1.86,3-2.68,5.33-2.68,5.13,0,7.68,4.12,7.68,8.89s-2.52,8.79-7.62,8.79a6.36,6.36,0,0,1-5.39-2.65h-.06v8.72H98.83Zm7.75,2.06c-3.68,0-5.1,3.2-5.1,6.37,0,3.33,1.48,6.4,5.26,6.4s5-3.23,5-6.53S110.13,35.06,106.58,35.06Z"/><path class="cls-12" d="M118,26.56h2.74V49.89H118Z"/><path class="cls-12" d="M127.94,30h-2.74v-3.4h2.74Zm-2.74,3h2.74V49.89h-2.74Z"/><path class="cls-12" d="M146.43,44.53a6.75,6.75,0,0,1-7.13,5.75c-5.33,0-7.84-3.72-8-8.89,0-5.06,3.29-8.79,7.84-8.79,5.91,0,7.71,5.59,7.55,9.67H134.2c-.1,2.94,1.55,5.55,5.2,5.55a4,4,0,0,0,4.32-3.3Zm-2.65-4.7A4.83,4.83,0,0,0,139,35.06c-2.87,0-4.58,2.19-4.78,4.77Z"/><path class="cls-12" d="M164.43,49.89h-2.74V47.6h-.06c-.9,1.86-3,2.68-5.33,2.68-5.13,0-7.68-4.12-7.68-8.89s2.52-8.79,7.62-8.79a6.36,6.36,0,0,1,5.39,2.65h.06V26.56h2.74Zm-7.75-2.06c3.68,0,5.1-3.2,5.1-6.37,0-3.33-1.48-6.4-5.26-6.4s-5,3.23-5,6.53S153.14,47.83,156.69,47.83Z"/><path class="cls-12" d="M22.74,64.62H20v-3.4h2.74Zm-2.74,3h2.74V84.55H20Z"/><path class="cls-12" d="M27,67.66h2.58v2.68h.06a5.79,5.79,0,0,1,5.42-3.07c4.39,0,5.74,2.55,5.74,6.17V84.55H38.07V73.12a3.16,3.16,0,0,0-3.39-3.4c-3.32,0-4.94,2.25-4.94,5.29v9.54H27Z"/><path class="cls-12" d="M44.94,67.66h2.58v2.68h.07A5.79,5.79,0,0,1,53,67.27c4.39,0,5.75,2.55,5.75,6.17V84.55H56V73.12a3.16,3.16,0,0,0-3.39-3.4c-3.32,0-4.94,2.25-4.94,5.29v9.54H44.94Z"/><path class="cls-12" d="M70.08,67.27c5.29,0,8.1,3.89,8.1,8.85s-2.81,8.82-8.1,8.82S62,81.06,62,76.12,64.79,67.27,70.08,67.27Zm0,15.22c2.87,0,5.2-2.29,5.2-6.37s-2.32-6.4-5.2-6.4-5.2,2.29-5.2,6.4S67.21,82.49,70.08,82.49Z"/><path class="cls-12" d="M88.93,84.55H86l-6.2-16.89h3.07l4.68,14.08h.06l4.55-14.08H95Z"/><path class="cls-12" d="M112.32,84.49a3.67,3.67,0,0,1-2,.46c-1.42,0-2.32-.78-2.32-2.61a7.36,7.36,0,0,1-5.87,2.61c-3,0-5.52-1.37-5.52-4.74,0-3.82,2.81-4.64,5.65-5.19,3-.59,5.62-.39,5.62-2.48,0-2.42-2-2.81-3.71-2.81-2.32,0-4,.72-4.16,3.2H97.28c.16-4.18,3.36-5.65,7.07-5.65,3,0,6.26.69,6.26,4.64V80.6c0,1.31,0,1.89.87,1.89a2.33,2.33,0,0,0,.84-.16Zm-4.45-8.66c-1.06.78-3.13.82-5,1.14s-3.36,1-3.36,3c0,1.83,1.55,2.48,3.23,2.48,3.61,0,5.1-2.29,5.1-3.82Z"/><path class="cls-12" d="M118.68,67.66H122v2.45h-3.32V80.6c0,1.27.36,1.5,2.07,1.5H122v2.45h-2.1c-2.84,0-4-.59-4-3.69V70.11h-2.84V67.66h2.84V62.6h2.74Z"/><path class="cls-12" d="M127.94,64.62h-2.74v-3.4h2.74Zm-2.74,3h2.74V84.55h-2.74Z"/><path class="cls-12" d="M139.39,67.27c5.29,0,8.1,3.89,8.1,8.85s-2.81,8.82-8.1,8.82-8.1-3.89-8.1-8.82S134.1,67.27,139.39,67.27Zm0,15.22c2.87,0,5.2-2.29,5.2-6.37s-2.32-6.4-5.2-6.4-5.2,2.29-5.2,6.4S136.52,82.49,139.39,82.49Z"/><path class="cls-12" d="M150.72,67.66h2.58v2.68h.07a5.79,5.79,0,0,1,5.42-3.07c4.39,0,5.75,2.55,5.75,6.17V84.55h-2.74V73.12a3.16,3.16,0,0,0-3.39-3.4c-3.32,0-4.94,2.25-4.94,5.29v9.54h-2.74Z"/><path class="cls-12" d="M42.46,112.16a6.75,6.75,0,0,1-7.13,5.75c-5.33,0-7.84-3.72-8-8.89,0-5.06,3.29-8.79,7.84-8.79,5.91,0,7.71,5.59,7.55,9.67H30.23c-.1,2.94,1.55,5.55,5.2,5.55a4,4,0,0,0,4.32-3.3Zm-2.65-4.7A4.83,4.83,0,0,0,35,102.69c-2.87,0-4.58,2.19-4.78,4.77Z"/><path class="cls-12" d="M50,108.63l-5.81-8h3.52l4,5.91,4.16-5.91h3.29l-5.75,7.78,6.46,9.12H56.4l-4.65-7-4.65,7H43.78Z"/><path class="cls-12" d="M73.6,106.05a3.9,3.9,0,0,0-4.13-3.37c-4,0-5.2,3.17-5.2,6.6,0,3.1,1.39,6.17,4.87,6.17a4.33,4.33,0,0,0,4.58-4.12h2.81c-.61,4.12-3.16,6.57-7.36,6.57-5.1,0-7.81-3.59-7.81-8.62s2.58-9,7.87-9c3.78,0,6.81,1.8,7.2,5.82Z"/><path class="cls-12" d="M79.6,94.19h2.74v8.92h.06c.9-2,3.26-2.87,5.26-2.87,4.39,0,5.75,2.55,5.75,6.17v11.11H90.67V106.08a3.16,3.16,0,0,0-3.39-3.4c-3.32,0-4.94,2.25-4.94,5.29v9.54H79.6Z"/><path class="cls-12" d="M112.32,117.45a3.66,3.66,0,0,1-2,.46c-1.42,0-2.32-.78-2.32-2.61a7.36,7.36,0,0,1-5.87,2.61c-3,0-5.52-1.37-5.52-4.74,0-3.82,2.81-4.64,5.65-5.19,3-.59,5.62-.39,5.62-2.48,0-2.42-2-2.81-3.71-2.81-2.32,0-4,.72-4.16,3.2H97.28c.16-4.18,3.36-5.65,7.07-5.65,3,0,6.26.69,6.26,4.64v8.69c0,1.31,0,1.89.87,1.89a2.32,2.32,0,0,0,.84-.16Zm-4.45-8.66c-1.07.78-3.13.82-5,1.14s-3.36,1-3.36,3c0,1.83,1.55,2.48,3.23,2.48,3.62,0,5.1-2.29,5.1-3.82Z"/><path class="cls-12" d="M114.87,100.63h2.58v2.68h.06a5.79,5.79,0,0,1,5.42-3.07c4.39,0,5.74,2.55,5.74,6.17v11.11h-2.74V106.08a3.16,3.16,0,0,0-3.39-3.4c-3.32,0-4.94,2.25-4.94,5.29v9.54h-2.74Z"/><path class="cls-12" d="M147.2,116.08c0,5.49-2.49,8.3-7.75,8.3-3.13,0-6.74-1.27-6.91-5h2.74c.13,2,2.52,2.74,4.33,2.74,3.58,0,5-2.61,5-6.4v-1.11h-.06a5.55,5.55,0,0,1-5.2,3.07c-5,0-7.46-4-7.46-8.56,0-4,1.94-8.92,7.71-8.92a5.43,5.43,0,0,1,5,2.81h0v-2.42h2.58Zm-2.71-7.35c0-3-1.29-6-4.74-6s-4.94,2.91-4.94,6.14c0,3,1.1,6.44,4.71,6.44S144.49,111.9,144.49,108.73Z"/><path class="cls-12" d="M165.56,112.16a6.75,6.75,0,0,1-7.13,5.75c-5.33,0-7.84-3.72-8-8.89,0-5.06,3.29-8.79,7.84-8.79,5.91,0,7.71,5.59,7.55,9.67H153.33c-.1,2.94,1.55,5.55,5.2,5.55a4,4,0,0,0,4.32-3.3Zm-2.65-4.7a4.83,4.83,0,0,0-4.81-4.77c-2.87,0-4.58,2.19-4.78,4.77Z"/><rect class="cls-13" width="291.22" height="144.38"/></g></g></g></svg>
